<svg width="94" height="88" viewBox="0 0 94 88" fill="none" xmlns="http://www.w3.org/2000/svg">
<circle opacity="0.8" cx="44" cy="44" r="42" fill="black" stroke="black" stroke-width="4"/>
<circle cx="44" cy="44" r="41.5" fill="#FF0000" stroke="white" stroke-width="3"/>
<path d="M18.9587 51.2525L12.5635 53.0463L11.6885 49.9267L18.0837 48.1329L18.9587 51.2525ZM30.2244 37.2404L22.9193 39.2894L23.6361 42.1449C23.9958 41.8944 24.5223 41.672 25.2156 41.4775C26.1515 41.215 27.0482 41.1131 27.9059 41.1716C28.7636 41.2302 29.5451 41.4503 30.2504 41.832C30.9682 42.1915 31.59 42.7088 32.1158 43.3839C32.6368 44.0416 33.0285 44.8384 33.291 45.7743C33.5827 46.8142 33.6608 47.7924 33.5253 48.7091C33.4072 49.6209 33.1163 50.4502 32.6528 51.1972C32.1845 51.9268 31.5583 52.5604 30.7744 53.0981C30.0078 53.6309 29.1219 54.0383 28.1167 54.3203C26.5223 54.7675 25.0784 54.7518 23.7851 54.2733C22.4918 53.7948 21.4247 52.8229 20.5837 51.3576L24.4027 49.2769C24.6914 49.9063 25.1194 50.3658 25.6867 50.6553C26.2491 50.9276 26.8683 50.9689 27.5442 50.7793C28.3761 50.546 28.9617 50.1013 29.3012 49.4452C29.6579 48.7843 29.7245 48.0553 29.5009 47.258C29.3308 46.6514 29.0622 46.194 28.6953 45.8856C28.3409 45.555 27.9241 45.3354 27.445 45.2268C26.9783 45.096 26.4815 45.0577 25.9546 45.112C25.4277 45.1663 24.9129 45.264 24.4103 45.405C23.7691 45.5848 23.1362 45.8278 22.5116 46.1338C21.9044 46.435 21.3266 46.7746 20.7784 47.1527L18.1353 36.9297L29.2619 33.8088L30.2244 37.2404ZM34.6455 42.2257C34.3393 41.1338 34.1235 39.9979 33.9982 38.8179C33.8902 37.633 33.9586 36.5108 34.2036 35.4513C34.4659 34.3869 34.9588 33.4448 35.6822 32.6249C36.4009 31.7878 37.4447 31.1772 38.8139 30.7931C40.1831 30.4091 41.3922 30.3878 42.4414 30.7291C43.4857 31.0531 44.388 31.6039 45.1482 32.3815C45.9258 33.1542 46.5679 34.0771 47.0745 35.1501C47.5985 36.2183 48.0136 37.2984 48.3198 38.3902C48.6261 39.4821 48.8332 40.6204 48.9412 41.8053C49.0665 42.9853 48.998 44.1075 48.7358 45.1719C48.4908 46.2314 48.009 47.1798 47.2904 48.0169C46.5669 48.8368 45.5206 49.4387 44.1514 49.8228C42.7823 50.2068 41.5755 50.2368 40.5312 49.9128C39.4821 49.5714 38.5687 49.0144 37.7911 48.2417C37.0309 47.4641 36.3888 46.5412 35.8648 45.473C35.3582 44.4 34.9518 43.3175 34.6455 42.2257ZM38.545 41.1319C38.6812 41.6172 38.8613 42.1929 39.0856 42.8591C39.3272 43.5204 39.6308 44.1363 39.9964 44.7068C40.3621 45.2772 40.7963 45.7256 41.2991 46.052C41.8192 46.3734 42.4346 46.4345 43.1452 46.2352C43.8384 46.0408 44.3236 45.671 44.6007 45.1259C44.8778 44.5808 45.0241 43.9696 45.0398 43.2922C45.0554 42.6148 44.9858 41.9333 44.8309 41.2476C44.6933 40.5571 44.5564 39.9693 44.4203 39.484C44.2842 38.9987 44.0954 38.4254 43.8538 37.7641C43.6295 37.0979 43.3346 36.4796 42.9689 35.9091C42.6033 35.3387 42.1604 34.8927 41.6403 34.5712C41.1201 34.2498 40.5134 34.1862 39.8202 34.3807C39.1096 34.58 38.6158 34.9522 38.3387 35.4973C38.0789 36.0375 37.9412 36.6463 37.9256 37.3237C37.9099 38.0011 37.9709 38.685 38.1085 39.3755C38.2634 40.0612 38.4089 40.6466 38.545 41.1319ZM63.5965 38.7883C63.3972 38.0778 63.34 37.3741 63.425 36.6772C63.5273 35.9755 63.7381 35.3275 64.0575 34.7332C64.3942 34.134 64.838 33.6169 65.389 33.1819C65.9352 32.7296 66.5635 32.4038 67.2741 32.2045C67.9847 32.0052 68.6908 31.9567 69.3925 32.059C70.0894 32.144 70.7287 32.3572 71.3106 32.6988C71.9098 33.0355 72.4268 33.4793 72.8618 34.0303C73.3141 34.5765 73.6399 35.2048 73.8392 35.9154C74.0385 36.626 74.0895 37.3408 73.992 38.0598C73.9071 38.7567 73.6962 39.4047 73.3595 40.0039C73.0402 40.5982 72.6074 41.1215 72.0613 41.5738C71.5103 42.0088 70.8795 42.3259 70.1689 42.5252C69.4583 42.7245 68.7546 42.7817 68.0578 42.6967C67.3561 42.5944 66.7056 42.375 66.1064 42.0383C65.5246 41.6967 65.0075 41.2529 64.5552 40.7067C64.1154 40.1384 63.7958 39.4989 63.5965 38.7883ZM71.1875 36.6592C70.9931 35.9659 70.5852 35.4447 69.9638 35.0956C69.3597 34.7415 68.7111 34.6617 68.0179 34.8562C67.3246 35.0506 66.8034 35.4586 66.4542 36.0799C66.1224 36.6965 66.0537 37.3513 66.2482 38.0446C66.4475 38.7552 66.8492 39.2875 67.4532 39.6415C68.0746 39.9907 68.7319 40.068 69.4252 39.8736C70.1184 39.6791 70.6309 39.2736 70.9628 38.6571C71.3119 38.0357 71.3869 37.3697 71.1875 36.6592ZM48.0774 33.7472C47.8781 33.0366 47.8209 32.3329 47.9059 31.636C48.0082 30.9343 48.219 30.2863 48.5384 29.692C48.8751 29.0928 49.3189 28.5757 49.8699 28.1408C50.4161 27.6885 51.0444 27.3626 51.755 27.1633C52.4656 26.964 53.1717 26.9155 53.8734 27.0178C54.5703 27.1028 55.2096 27.3161 55.7915 27.6576C56.3907 27.9943 56.9077 28.4381 57.3427 28.9891C57.795 29.5353 58.1208 30.1637 58.3201 30.8742C58.5194 31.5848 58.5679 32.2909 58.4656 32.9926C58.3807 33.6895 58.1698 34.3375 57.8332 34.9367C57.5138 35.531 57.081 36.0543 56.5349 36.5066C55.9839 36.9416 55.3531 37.2587 54.6425 37.4581C53.9319 37.6574 53.2282 37.7145 52.5314 37.6296C51.8297 37.5273 51.1793 37.3078 50.5801 36.9711C49.9982 36.6295 49.4811 36.1857 49.0288 35.6395C48.5939 35.0885 48.2767 34.4577 48.0774 33.7472ZM55.6685 31.618C55.474 30.9247 55.0661 30.4035 54.4447 30.0544C53.8407 29.7004 53.192 29.6206 52.4988 29.815C51.8055 30.0095 51.2843 30.4174 50.9352 31.0388C50.6033 31.6553 50.5346 32.3102 50.7291 33.0034C50.9235 33.6967 51.3228 34.2203 51.9268 34.5743C52.5482 34.9235 53.2055 35.0008 53.8988 34.8064C54.592 34.6119 55.1046 34.2065 55.4364 33.5899C55.7855 32.9685 55.8629 32.3112 55.6685 31.618ZM62.3458 23.6319L64.8723 24.2413L59.4221 46.1004L57.1328 45.5367L62.3458 23.6319Z" fill="white"/>
<path d="M27.5282 62.0816C27.6961 62.6409 27.6533 63.1382 27.3998 63.5735C27.144 64.0011 26.7349 64.3495 26.1725 64.6186L26.1863 64.6646C26.9035 64.5495 27.4927 64.6064 27.9541 64.8354C28.4154 65.0644 28.7278 65.4509 28.8911 65.9949C29.0361 66.4776 29.0411 66.9397 28.9064 67.3811C28.7693 67.8148 28.4867 68.2088 28.0584 68.5629C27.6302 68.917 27.0482 69.2045 26.3127 69.4253C25.8683 69.5588 25.4327 69.652 25.0059 69.7049C24.5891 69.7633 24.1829 69.7599 23.7875 69.6949L23.5046 68.7524C23.7766 68.796 24.0594 68.8197 24.3528 68.8235C24.6517 68.8173 24.9459 68.7958 25.2356 68.7589C25.5229 68.7144 25.793 68.6542 26.0458 68.5783C26.7814 68.3574 27.2955 68.0527 27.5881 67.6642C27.8884 67.2733 27.9626 66.825 27.8108 66.3193C27.6543 65.7983 27.3182 65.4857 26.8025 65.3816C26.2868 65.2776 25.6305 65.3451 24.8337 65.5844L23.6614 65.9364L23.4026 65.0744L24.5174 64.7397C25.0614 64.5763 25.4912 64.3805 25.8069 64.152C26.1302 63.9213 26.3466 63.6684 26.4561 63.3933C26.571 63.1082 26.5824 62.8124 26.4904 62.5059C26.3661 62.0922 26.1174 61.8202 25.7442 61.69C25.371 61.5599 24.9392 61.5684 24.4489 61.7156C23.9355 61.8698 23.526 62.0637 23.2203 62.2975C22.9223 62.529 22.6434 62.7965 22.3837 63.1L21.679 62.5473C21.8452 62.322 22.0479 62.1066 22.2869 61.9012C22.5313 61.6858 22.8144 61.4881 23.1362 61.3079C23.4579 61.1278 23.8142 60.979 24.205 60.8617C24.795 60.6846 25.3156 60.6243 25.767 60.6809C26.226 60.7352 26.6049 60.8845 26.9038 61.1289C27.2004 61.3656 27.4085 61.6831 27.5282 62.0816ZM37.5976 65.9117L36.5633 66.2222L35.4141 62.395L31.2076 63.658L32.3568 67.4853L31.3224 67.7958L28.8585 59.5898L29.8928 59.2792L30.935 62.7501L35.1415 61.4871L34.0993 58.0162L35.1337 57.7056L37.5976 65.9117ZM37.3888 57.0285L38.3542 56.7386L39.7069 61.2439C39.7645 61.4355 39.8239 61.6473 39.8852 61.8795C39.952 62.1017 40.0149 62.325 40.0739 62.5495C40.133 62.774 40.1813 62.9767 40.2189 63.1575C40.2618 63.3284 40.2933 63.4609 40.3132 63.5552L40.3592 63.5414L42.8365 55.3928L43.9858 55.0477L46.4497 63.2538L45.4843 63.5436L44.1454 59.0843C44.0833 58.8774 44.0204 58.6541 43.9567 58.4143C43.8908 58.1668 43.8283 57.9308 43.7692 57.7063C43.7155 57.4718 43.666 57.2653 43.6208 57.0868C43.5755 56.9083 43.5441 56.7757 43.5265 56.6891L43.4805 56.7029L41.002 64.8895L39.8527 65.2346L37.3888 57.0285ZM49.5918 57.7121L45.2107 54.6799L46.36 54.3348L50.6917 57.3693L49.4977 53.3927L50.4861 53.0959L51.6801 57.0726L53.6237 52.1538L54.773 51.8088L52.7834 56.7413L57.3404 59.9838L56.1566 60.3392L51.7008 57.1415L52.95 61.302L51.9616 61.5988L50.7124 57.4383L48.7435 62.565L47.5597 62.9205L49.5918 57.7121ZM64.4605 57.8459L63.2193 58.2186L58.2578 55.1727L59.507 59.3332L58.4726 59.6438L56.0087 51.4377L57.0431 51.1272L58.2371 55.1038L60.6634 50.0401L61.8357 49.6881L59.4703 54.746L64.4605 57.8459ZM70.7261 55.9646L68.9751 53.7214L65.7225 54.698L65.5083 57.5313L64.4624 57.8453L65.1947 48.642L66.1256 48.3625L71.795 55.6437L70.7261 55.9646ZM66.7239 50.6887C66.6825 50.6343 66.6108 50.5347 66.5089 50.3899C66.4069 50.2451 66.3038 50.0965 66.1996 49.944C66.1007 49.7816 66.0221 49.659 65.9639 49.5763C65.9716 49.741 65.9766 49.9107 65.9789 50.0854C65.9866 50.2502 65.987 50.4046 65.9802 50.5486C65.981 50.6904 65.9799 50.8119 65.9768 50.913L65.7913 53.675L68.3887 52.8951L66.7239 50.6887Z" fill="white"/>
</svg>
